<svg width="44" height="35" viewBox="0 0 44 35" fill="none" xmlns="http://www.w3.org/2000/svg">
<path d="M22.0037 17.5588C22.0037 22.2355 18.1827 25.9609 13.5054 28.4642C8.69631 25.9609 5.00714 22.2355 5.00714 17.5588C5.00714 12.8821 8.81194 11.5336 13.5054 11.5336C18.1989 11.5336 22.0037 12.8821 22.0037 17.5588Z" fill="#404040"/>
<path d="M13.553 10.9356C13.9943 15.6583 11.5628 15.8362 8.7837 16.5421C5.48753 17.3795 0.706323 15.1849 0.147024 14.0409C-0.412276 12.8969 3.81903 13.9134 6.66273 12.5232C9.50644 11.1329 13.1118 6.21299 13.553 10.9356Z" fill="#404040"/>
<path d="M13.2086 10.8968C12.6136 15.5965 15.0184 15.8351 17.7504 16.6093C20.9906 17.5275 25.8043 15.4588 26.3971 14.3317C26.9898 13.2047 22.7605 14.1121 19.9874 12.6538C17.2142 11.1954 13.8037 6.19707 13.2086 10.8968Z" fill="#404040"/>
<path d="M12.5163 2.88251C12.8571 3.72586 10.1885 3.18354 7.59099 4.23301C4.99346 5.28248 3.45059 7.52632 3.10985 6.68297C2.76912 5.83962 4.10504 3.08356 6.70257 2.03409C9.30009 0.984624 12.1756 2.03915 12.5163 2.88251Z" fill="#404040"/>
<path d="M23.5049 6.6829C23.1641 7.52625 21.6213 5.28241 19.0237 4.23294C16.4262 3.18347 13.7577 3.72579 14.0984 2.88244C14.4391 2.03908 17.3146 0.984551 19.9122 2.03402C22.5097 3.08349 23.8456 5.83954 23.5049 6.6829Z" fill="#404040"/>
<circle cx="8.47234" cy="6.83568" r="1.13805" fill="#404040"/>
<circle cx="18.0826" cy="6.83568" r="1.13805" fill="#404040"/>
<rect x="30" y="2" width="3" height="11" fill="#404040"/>
<rect x="26" y="9" width="3" height="11" transform="rotate(-90 26 9)" fill="#404040"/>
</svg>
