<svg width="44" height="35" viewBox="0 0 44 35" fill="none" xmlns="http://www.w3.org/2000/svg">
<circle cx="14.5" cy="14.5" r="14.5" fill="#404040"/>
<path d="M9.04711 19C9.04711 19 10.1111 18.8999 10.4107 18.1375C10.7204 17.3487 10.1342 17.0263 10.1342 17.0263C10.1342 17.0263 10.9849 17.0547 11.2996 16.0921C11.5964 15.1849 10.8738 14.7686 10.8738 14.7686C10.8738 14.7686 11.7053 14.6208 11.948 13.6655C12.152 12.8613 11.4293 12.2621 11.4293 12.2621H16.8551C17.2813 12.2621 17.9996 12.0012 18 11.0382C18.0009 10.0756 17.2627 9.8557 16.8551 9.8557H7.744C7.29956 9.8557 7.29956 9.37442 7.744 9.37442H8.92889C10.6142 9.37442 11.6591 8.39357 11.9476 8.05042C12.2364 7.70727 12.3827 7.24813 12.2738 6.69322C12.0893 5.75183 11.4204 5.95734 10.8529 6.22397C9.48489 6.86744 7.53556 7.30877 6.61378 7.44305C4.01022 7.82374 2.00267 10.2388 2 13.1626C1.99822 16.3515 4.35467 18.9976 7.29956 19H9.04711Z" fill="white"/>
<path d="M12.252 14.627H13.485V15.068C13.701 14.9 13.926 14.768 14.16 14.672C14.4 14.57 14.637 14.519 14.871 14.519C15.141 14.519 15.39 14.588 15.618 14.726C15.846 14.858 16.041 15.044 16.203 15.284C16.371 15.524 16.503 15.809 16.599 16.139C16.695 16.469 16.743 16.832 16.743 17.228C16.743 17.636 16.692 18.017 16.59 18.371C16.488 18.719 16.347 19.022 16.167 19.28C15.987 19.538 15.774 19.739 15.528 19.883C15.288 20.027 15.027 20.099 14.745 20.099C14.505 20.099 14.274 20.048 14.052 19.946C13.836 19.844 13.647 19.715 13.485 19.559V21.629H12.207L12.252 14.627ZM13.485 16.751C13.485 16.997 13.551 17.195 13.683 17.345C13.821 17.495 13.995 17.57 14.205 17.57C14.433 17.57 14.625 17.489 14.781 17.327C14.943 17.165 15.024 16.958 15.024 16.706C15.024 16.592 15.003 16.484 14.961 16.382C14.925 16.28 14.871 16.193 14.799 16.121C14.727 16.043 14.643 15.983 14.547 15.941C14.457 15.899 14.358 15.878 14.25 15.878C14.028 15.878 13.845 15.959 13.701 16.121C13.557 16.283 13.485 16.493 13.485 16.751ZM18.904 17.165C18.982 17.423 19.111 17.633 19.291 17.795C19.471 17.957 19.72 18.038 20.038 18.038C20.134 18.038 20.236 18.032 20.344 18.02C20.458 18.002 20.569 17.981 20.677 17.957C20.785 17.927 20.887 17.897 20.983 17.867C21.079 17.831 21.163 17.798 21.235 17.768C21.247 17.942 21.253 18.128 21.253 18.326C21.259 18.518 21.262 18.71 21.262 18.902C21.262 19.22 21.253 19.505 21.235 19.757C20.767 19.985 20.242 20.099 19.66 20.099C19.39 20.099 19.117 20.069 18.841 20.009C18.565 19.949 18.298 19.835 18.04 19.667C17.812 19.517 17.623 19.343 17.473 19.145C17.329 18.941 17.215 18.734 17.131 18.524C17.047 18.308 16.99 18.098 16.96 17.894C16.93 17.69 16.915 17.507 16.915 17.345C16.915 17.105 16.942 16.856 16.996 16.598C17.056 16.334 17.146 16.085 17.266 15.851C17.386 15.611 17.539 15.392 17.725 15.194C17.911 14.996 18.13 14.84 18.382 14.726C18.688 14.588 19.012 14.519 19.354 14.519C19.714 14.519 20.038 14.591 20.326 14.735C20.614 14.879 20.848 15.077 21.028 15.329C21.202 15.569 21.31 15.836 21.352 16.13C21.4 16.424 21.424 16.769 21.424 17.165H18.904ZM19.417 15.491C19.291 15.491 19.171 15.545 19.057 15.653C18.943 15.755 18.868 15.938 18.832 16.202H20.011C19.987 15.962 19.915 15.785 19.795 15.671C19.681 15.551 19.555 15.491 19.417 15.491ZM27.7127 14.618L26.6867 20H25.0217L24.5717 17.282L24.1307 20H22.4747L21.4307 14.618H22.7807L23.1497 17.48C23.1677 17.606 23.1887 17.702 23.2127 17.768C23.2427 17.828 23.2877 17.858 23.3477 17.858C23.3957 17.858 23.4317 17.828 23.4557 17.768C23.4797 17.708 23.5007 17.612 23.5187 17.48L23.9597 14.618H25.1837L25.6517 17.48C25.6697 17.606 25.6907 17.702 25.7147 17.768C25.7447 17.828 25.7867 17.858 25.8407 17.858C25.9307 17.858 25.9877 17.732 26.0117 17.48L26.3627 14.618H27.7127Z" fill="white"/>
</svg>
