<svg width="34" height="37" viewBox="0 0 34 37" fill="none" xmlns="http://www.w3.org/2000/svg">
<path d="M28.1745 22.3125C28.1745 28.3009 23.2819 33.0711 17.2927 36.2766C11.1348 33.0711 6.41089 28.3009 6.41089 22.3125C6.41089 16.3241 11.2828 14.5974 17.2927 14.5974C23.3025 14.5974 28.1745 16.3241 28.1745 22.3125Z" fill="#404040"/>
<path d="M17.3542 13.8315C17.9192 19.8787 14.8058 20.1065 11.2472 21.0105C7.02655 22.0826 0.904349 19.2726 0.188181 17.8077C-0.527986 16.3428 4.89008 17.6445 8.53137 15.8643C12.1727 14.0841 16.7892 7.78428 17.3542 13.8315Z" fill="#404040"/>
<path d="M16.9132 13.7817C16.1512 19.7995 19.2306 20.1051 22.7287 21.0964C26.8777 22.2721 33.0416 19.6232 33.8006 18.1801C34.5595 16.7369 29.1441 17.8989 25.5932 16.0315C22.0423 14.1641 17.6752 7.76384 16.9132 13.7817Z" fill="#404040"/>
<path d="M16.0265 3.51957C16.4628 4.59946 13.0457 3.90503 9.71969 5.24885C6.39363 6.59267 4.41802 9.46585 3.98172 8.38596C3.54542 7.30607 5.25603 3.77702 8.58209 2.4332C11.9081 1.08938 15.5901 2.43968 16.0265 3.51957Z" fill="#404040"/>
<path d="M30.0978 8.38601C29.6615 9.4659 27.6859 6.59272 24.3598 5.24891C21.0338 3.90509 17.6168 4.59952 18.0531 3.51963C18.4894 2.43974 22.1714 1.08944 25.4974 2.43325C28.8235 3.77707 30.5341 7.30612 30.0978 8.38601Z" fill="#404040"/>
<circle cx="10.8486" cy="8.58163" r="1.45724" fill="#404040"/>
<circle cx="23.1538" cy="8.58163" r="1.45724" fill="#404040"/>
</svg>
