<svg width="116" height="60" viewBox="0 0 116 60" fill="none" xmlns="http://www.w3.org/2000/svg">
<g filter="url(#filter0_d)">
<path d="M27.288 10.736C27.192 12.752 27.112 14.656 27.048 16.448C27.016 18.24 26.984 20.016 26.952 21.776C26.92 23.504 26.888 25.264 26.856 27.056C26.856 28.816 26.856 30.704 26.856 32.72C26.856 35.088 26.856 37.664 26.856 40.448C26.888 43.232 26.92 46.416 26.952 50H18.984C19.048 48.08 19.096 46.08 19.128 44C19.16 41.888 19.192 39.488 19.224 36.8H12.12C12.12 38.688 12.12 40.72 12.12 42.896C12.152 45.04 12.184 47.408 12.216 50H4.248C4.28 48.592 4.312 47.152 4.344 45.68C4.376 44.208 4.408 42.624 4.44 40.928C4.472 39.232 4.488 37.376 4.488 35.36C4.488 33.344 4.488 31.104 4.488 28.64C4.488 26.464 4.488 24.592 4.488 23.024C4.488 21.424 4.472 19.968 4.44 18.656C4.44 17.344 4.44 16.08 4.44 14.864C4.44 13.616 4.44 12.24 4.44 10.736H12.552C12.424 13.392 12.328 15.856 12.264 18.128C12.2 20.368 12.152 22.64 12.12 24.944H19.224C19.224 23.472 19.224 22.144 19.224 20.96C19.224 19.744 19.208 18.592 19.176 17.504C19.176 16.384 19.176 15.296 19.176 14.24C19.176 13.152 19.176 11.984 19.176 10.736H27.288ZM47.5103 50.144C46.6143 50.112 45.4303 50.08 43.9583 50.048C42.4863 50.048 40.9023 50.032 39.2063 50C37.5423 50 35.8623 50 34.1663 50C32.5023 50 31.0303 50 29.7503 50C29.7823 49.328 29.7983 48.432 29.7983 47.312C29.8303 46.192 29.8463 44.912 29.8463 43.472C29.8463 42.032 29.8463 40.48 29.8463 38.816C29.8463 37.12 29.8463 35.376 29.8463 33.584C29.8463 31.152 29.8303 28.72 29.7983 26.288C29.7983 23.856 29.7983 21.6 29.7983 19.52C29.7983 17.408 29.7823 15.584 29.7503 14.048C29.7503 12.512 29.7503 11.424 29.7503 10.784C30.9983 10.784 32.3743 10.784 33.8783 10.784C35.3823 10.784 36.9183 10.784 38.4863 10.784C40.0543 10.752 41.5903 10.72 43.0943 10.688C44.5983 10.656 46.0063 10.624 47.3183 10.592C47.3183 11.008 47.3183 11.376 47.3183 11.696C47.3503 11.984 47.3663 12.4 47.3663 12.944C47.3663 13.328 47.3503 13.792 47.3183 14.336C47.3183 14.848 47.3023 15.392 47.2703 15.968C47.2703 16.512 47.2543 17.072 47.2223 17.648C47.2223 18.192 47.2063 18.704 47.1743 19.184H37.5263V24.752H45.9263V31.904H37.5263V37.28H47.3183C47.3503 38.016 47.3823 38.768 47.4143 39.536C47.4463 40.304 47.4623 41.168 47.4623 42.128C47.4943 43.088 47.5103 44.224 47.5103 45.536C47.5103 46.816 47.5103 48.352 47.5103 50.144ZM66.6641 10.736H74.5841L65.2241 35.6V37.76C65.2241 39.936 65.2241 41.696 65.2241 43.04C65.2241 44.352 65.2241 45.44 65.2241 46.304C65.2241 47.136 65.2241 47.824 65.2241 48.368C65.2561 48.88 65.2721 49.424 65.2721 50H56.9681C57.0321 47.92 57.0801 45.744 57.1121 43.472C57.1441 41.2 57.1761 38.576 57.2081 35.6L47.8961 10.736H55.8641L61.2401 27.104L66.6641 10.736ZM86.3576 10.16C91.1256 10.16 94.6456 11.856 96.9176 15.248C99.1896 18.64 100.326 23.568 100.326 30.032C100.326 36.592 99.2056 41.648 96.9656 45.2C94.7576 48.752 91.2216 50.528 86.3576 50.528C83.9576 50.528 81.8776 50.08 80.1176 49.184C78.3576 48.256 76.9016 46.928 75.7496 45.2C74.5976 43.44 73.7496 41.296 73.2056 38.768C72.6616 36.208 72.3896 33.296 72.3896 30.032C72.3896 23.472 73.5256 18.528 75.7976 15.2C78.0696 11.84 81.5896 10.16 86.3576 10.16ZM86.3576 38.144C87.3816 38.144 88.2776 37.92 89.0456 37.472C89.8456 36.992 90.5016 36.352 91.0136 35.552C91.5256 34.72 91.9096 33.744 92.1656 32.624C92.4216 31.472 92.5496 30.208 92.5496 28.832C92.5496 27.456 92.4216 26.192 92.1656 25.04C91.9096 23.856 91.5256 22.832 91.0136 21.968C90.5016 21.104 89.8456 20.432 89.0456 19.952C88.2776 19.472 87.3816 19.232 86.3576 19.232C85.3336 19.232 84.4376 19.488 83.6696 20C82.9336 20.48 82.2936 21.152 81.7496 22.016C81.2376 22.88 80.8536 23.904 80.5976 25.088C80.3416 26.24 80.2136 27.488 80.2136 28.832C80.2136 30.208 80.3416 31.472 80.5976 32.624C80.8536 33.744 81.2376 34.72 81.7496 35.552C82.2936 36.352 82.9336 36.992 83.6696 37.472C84.4376 37.92 85.3336 38.144 86.3576 38.144ZM111.972 10.448L109.62 35.456H103.812V9.632L111.972 10.448ZM106.26 40.208C107.06 40.208 107.764 40.368 108.372 40.688C109.012 41.008 109.54 41.424 109.956 41.936C110.404 42.416 110.74 42.96 110.964 43.568C111.188 44.144 111.3 44.704 111.3 45.248C111.3 45.952 111.156 46.624 110.868 47.264C110.612 47.904 110.244 48.464 109.764 48.944C109.316 49.424 108.772 49.808 108.132 50.096C107.524 50.384 106.884 50.528 106.212 50.528C105.348 50.528 104.596 50.384 103.956 50.096C103.316 49.84 102.788 49.488 102.372 49.04C101.956 48.56 101.636 48.032 101.412 47.456C101.22 46.88 101.124 46.288 101.124 45.68C101.124 45.04 101.236 44.4 101.46 43.76C101.684 43.088 102.004 42.496 102.42 41.984C102.868 41.44 103.412 41.008 104.052 40.688C104.692 40.368 105.428 40.208 106.26 40.208Z" fill="#404040"/>
</g>
<defs>
<filter id="filter0_d" x="0.248047" y="9.63199" width="115.724" height="48.896" filterUnits="userSpaceOnUse" color-interpolation-filters="sRGB">
<feFlood flood-opacity="0" result="BackgroundImageFix"/>
<feColorMatrix in="SourceAlpha" type="matrix" values="0 0 0 0 0 0 0 0 0 0 0 0 0 0 0 0 0 0 127 0"/>
<feOffset dy="4"/>
<feGaussianBlur stdDeviation="2"/>
<feColorMatrix type="matrix" values="0 0 0 0 0 0 0 0 0 0 0 0 0 0 0 0 0 0 0.25 0"/>
<feBlend mode="normal" in2="BackgroundImageFix" result="effect1_dropShadow"/>
<feBlend mode="normal" in="SourceGraphic" in2="effect1_dropShadow" result="shape"/>
</filter>
</defs>
</svg>

