<svg width="44" height="40" viewBox="0 0 38 38" fill="none" xmlns="http://www.w3.org/2000/svg">
<mask id="path-1-inside-1" fill="white">
<path d="M0.843262 34.8008C0.843262 28.1734 6.21585 22.8008 12.8433 22.8008H26C32.6274 22.8008 38 28.1734 38 34.8008V36.1568C38 36.7091 37.5523 37.1568 37 37.1568H1.84326C1.29098 37.1568 0.843262 36.7091 0.843262 36.1568V34.8008Z"/>
</mask>
<path d="M0.843262 34.8008C0.843262 28.1734 6.21585 22.8008 12.8433 22.8008H26C32.6274 22.8008 38 28.1734 38 34.8008V36.1568C38 36.7091 37.5523 37.1568 37 37.1568H1.84326C1.29098 37.1568 0.843262 36.7091 0.843262 36.1568V34.8008Z" stroke="#404040" stroke-width="6" mask="url(#path-1-inside-1)"/>
<circle cx="18.7338" cy="11.0094" r="9.5094" stroke="#404040" stroke-width="3"/>
</svg>
